<?xml version="1.0" encoding="utf-8"?>
<!-- Generator: Adobe Illustrator 16.0.0, SVG Export Plug-In . SVG Version: 6.00 Build 0)  -->
<!DOCTYPE svg PUBLIC "-//W3C//DTD SVG 1.1//EN" "http://www.w3.org/Graphics/SVG/1.1/DTD/svg11.dtd">
<svg version="1.1" id="Layer_1" xmlns="http://www.w3.org/2000/svg" xmlns:xlink="http://www.w3.org/1999/xlink" x="0px" y="0px"
	 width="1440px" height="1440px" viewBox="0 0 1440 1440" enable-background="new 0 0 1440 1440" xml:space="preserve">
<path fill="#48BA7F" d="M1208.923,716.17c-2.073-311.703-256.247-564.667-568.425-564.667C327.024,151.517,72,406.541,72,720
	c0,21.715,1.267,43.128,3.643,64.21c9.936-23.069,23.904-45.217,40.565-65.909c0.921-288.316,235.742-522.605,524.275-522.605
	c280.599,0,510.408,221.587,523.67,498.96c-34.991-18.85-73.54-44.266-114.868-78.48c-378.836-313.517-576.245-5.313-581.256,2.117
	c168.595,6.566,299.03,112.968,472.521,127.224c27.489,2.261-19.109,25.604-32.486,24.494
	c-82.182-6.753-147.859-38.188-218.506-68.558c-24.221-9.102-48.773-18.548-74.361-27.677c-10.412-3.716-20.578-7.488-30.601-11.175
	c-39.988-10.887-79.805-16.243-118.714-16.632c0.317,5.774,0.764,12.369,1.844,19.93c5.73,21.815,18.705,52.545,46.036,95.299
	C663.768,930.11,815.89,976.032,949.378,965.404c63.749-5.068,123.249-23.054,176.241-46.699
	c-78.451,190.858-266.342,325.599-485.136,325.599c-210.14,0-391.767-124.286-475.33-303.191
	C114.552,750.197,329.875,647.626,464.328,648.36c0.259,0,0.532,0,0.792,0v-2.405v-25.243c-23.544-0.763-47.794,0.36-73.037,4.047
	c-45.015,6.552-94.694,18.863-139.104,38.649c-55.786,28.382-105.739,76.91-129.384,137.808c-0.202,1.052-0.403,2.103-0.576,3.168
	c-0.058-0.389-0.129-0.763-0.187-1.151c-17.15,45.46-19.656,97.703,0.921,153.575c89.971,195.553,287.755,331.676,516.758,331.676
	c254.362,0,470.232-167.933,542.592-398.751C1296.288,825.897,1368,745.661,1368,745.661S1307.232,757.829,1208.923,716.17z"/>
<rect x="-582.535" y="423.155" fill="#48BA7F" width="153.448" height="158.621"/>
</svg>
